<svg width="1280" height="563" viewBox="0 0 1280 563" fill="none" xmlns="http://www.w3.org/2000/svg">
<g clip-path="url(#clip0_29_105)">
<path d="M0 0L42.6667 23.6963C85.3333 47.0375 170.667 94.9625 256 132.504C341.333 170.4 426.667 198.8 512 189.304C597.333 180.163 682.667 132.238 768 104.104C853.333 75.4375 938.667 66.5625 1024 75.7038C1109.33 85.2 1194.67 113.6 1237.33 127.8L1280 142V284H1237.33C1194.67 284 1109.33 284 1024 284C938.667 284 853.333 284 768 284C682.667 284 597.333 284 512 284C426.667 284 341.333 284 256 284C170.667 284 85.3333 284 42.6667 284H0V0Z" fill="#0099FF"/>
</g>
<path d="M1280 364.2L1237.33 354.704C1194.67 345.562 1109.33 326.038 1024 340.504C938.667 354.438 853.333 402.362 768 406.8C682.667 411.238 597.333 373.963 512 354.704C426.667 335.8 341.333 335.8 256 359.496C170.667 382.837 85.3334 430.762 42.6666 454.104L0 477.8V279H42.6666C85.3334 279 170.667 279 256 279C341.333 279 426.667 279 512 279C597.333 279 682.667 279 768 279C853.333 279 938.667 279 1024 279C1109.33 279 1194.67 279 1237.33 279H1280V364.2Z" fill="#0099FF"/>
<defs>
<clipPath id="clip0_29_105">
<rect width="1280" height="284" fill="white"/>
</clipPath>
</defs>
</svg>
